<?xml version="1.0" encoding="UTF-8" standalone="no"?>
<!DOCTYPE svg PUBLIC "-//W3C//DTD SVG 1.1//EN" "http://www.w3.org/Graphics/SVG/1.1/DTD/svg11.dtd">
<!-- 由 Microsoft Visio, SVG Export 生成 SystemDiagram_Colord.svg Page-1 -->
<svg xmlns="http://www.w3.org/2000/svg" xmlns:xlink="http://www.w3.org/1999/xlink" xmlns:ev="http://www.w3.org/2001/xml-events"
		xmlns:v="http://schemas.microsoft.com/visio/2003/SVGExtensions/" width="11.6929in" height="8.26772in"
		viewBox="0 0 841.89 595.276" xml:space="preserve" color-interpolation-filters="sRGB" class="st20">
	<v:documentProperties v:langID="2052" v:metric="true" v:viewMarkup="false">
		<v:userDefs>
			<v:ud v:nameU="msvNoAutoConnect" v:val="VT0(1):26"/>
		</v:userDefs>
	</v:documentProperties>

	<style type="text/css">
	<![CDATA[
		.st1 {fill:#ffffff;stroke:#000000;stroke-linecap:round;stroke-linejoin:round;stroke-width:0.75}
		.st2 {fill:#000000;font-family:Calibri;font-size:1.5em}
		.st3 {font-family:黑体;font-size:1em}
		.st4 {fill:#000000;font-family:Calibri;font-size:1.16666em}
		.st5 {fill:#000000;font-family:黑体;font-size:1.16666em}
		.st6 {font-family:Calibri;font-size:1em}
		.st7 {fill:#000000;font-family:Calibri;font-size:0.833336em}
		.st8 {fill:#000000}
		.st9 {stroke:#000000;stroke-linecap:round;stroke-linejoin:round;stroke-width:0.2376}
		.st10 {fill:#000000;font-family:黑体;font-size:0.833336em}
		.st11 {fill:#ffffff}
		.st12 {stroke:none;stroke-linecap:round;stroke-linejoin:round;stroke-width:0.75}
		.st13 {stroke:#000000;stroke-linecap:round;stroke-linejoin:round;stroke-width:0.75}
		.st14 {fill:#ffffff;stroke:#ffffff;stroke-linecap:round;stroke-linejoin:round;stroke-width:0.75;visibility:hidden}
		.st15 {marker-end:url(#mrkr4-122);stroke:#000000;stroke-linecap:round;stroke-linejoin:round;stroke-width:0.2376}
		.st16 {fill:#000000;fill-opacity:1;stroke:#000000;stroke-opacity:1;stroke-width:0.086161879895561}
		.st17 {font-size:0.714294em}
		.st18 {font-family:Calibri;font-size:0.714294em}
		.st19 {font-size:1em}
		.st20 {fill:none;fill-rule:evenodd;font-size:12px;overflow:visible;stroke-linecap:square;stroke-miterlimit:3}
	]]>
	</style>

	<defs id="Markers">
		<g id="lend4">
			<path d="M 2 1 L 0 0 L 2 -1 L 2 1 " style="stroke:none"/>
		</g>
		<marker id="mrkr4-122" class="st16" v:arrowType="4" v:arrowSize="2" v:setback="23.2121" refX="-23.212121212121"
				orient="auto" markerUnits="strokeWidth" overflow="visible">
			<use xlink:href="#lend4" transform="scale(-11.606060606061,-11.606060606061) "/>
		</marker>
	</defs>
	<g v:mID="0" v:index="1" v:groupContext="foregroundPage">
		<v:userDefs>
			<v:ud v:nameU="msvThemeOrder" v:val="VT0(0):26"/>
		</v:userDefs>
		<title>页-1</title>
		<v:pageProperties v:drawingScale="0.0393701" v:pageScale="0.0393701" v:drawingUnits="24" v:shadowOffsetX="8.50394"
				v:shadowOffsetY="-8.50394"/>
		<v:layer v:name="连接线" v:index="0"/>
		<g id="shape113-1" v:mID="113" v:groupContext="shape" transform="translate(197.308,-19.9822)">
			<title>框.113</title>
			<desc>FPGA板卡内部资源</desc>
			<v:userDefs>
				<v:ud v:nameU="visVersion" v:val="VT0(15):26"/>
			</v:userDefs>
			<v:textBlock v:margins="rect(4,4,4,4)" v:tabSpace="42.5197" v:verticalAlign="2"/>
			<v:textRect cx="305.283" cy="359.689" width="610.57" height="471.173"/>
			<rect x="0" y="124.103" width="610.566" height="471.173" class="st1"/>
			<text x="231.61" y="585.29" class="st2" v:langID="2052"><v:paragraph v:horizAlign="1"/><v:tabList/>FPGA<tspan
						class="st3">板卡内部资源</tspan></text>		</g>
		<g id="shape88-5" v:mID="88" v:groupContext="shape" transform="translate(623.622,-127.503)">
			<title>框.88</title>
			<desc>UDP顶层模块</desc>
			<v:userDefs>
				<v:ud v:nameU="visVersion" v:val="VT0(15):26"/>
			</v:userDefs>
			<v:textBlock v:margins="rect(4,4,4,4)" v:tabSpace="42.5197" v:verticalAlign="0"/>
			<v:textRect cx="82.9134" cy="418.634" width="165.83" height="353.283"/>
			<rect x="0" y="241.992" width="165.827" height="353.283" class="st1"/>
			<text x="42.5" y="259.97" class="st4" v:langID="2052"><v:paragraph v:horizAlign="1"/><v:tabList/>UDP<tspan class="st3">顶层模块</tspan></text>		</g>
		<g id="shape98-9" v:mID="98" v:groupContext="shape" transform="translate(245.197,-180.688)">
			<title>框.98</title>
			<desc>CMOS摄像头模块</desc>
			<v:userDefs>
				<v:ud v:nameU="visVersion" v:val="VT0(15):26"/>
			</v:userDefs>
			<v:textBlock v:margins="rect(4,4,4,4)" v:tabSpace="42.5197" v:verticalAlign="0"/>
			<v:textRect cx="82.9134" cy="445.226" width="165.83" height="300.099"/>
			<rect x="0" y="295.177" width="165.827" height="300.099" class="st1"/>
			<text x="30.35" y="313.15" class="st4" v:langID="2052"><v:paragraph v:horizAlign="1"/><v:tabList/>CMOS<tspan
						class="st3">摄像头模块</tspan></text>		</g>
		<g id="shape105-13" v:mID="105" v:groupContext="shape" transform="translate(429.449,-180.688)">
			<title>框.105</title>
			<desc>DDR存储模块</desc>
			<v:userDefs>
				<v:ud v:nameU="visVersion" v:val="VT0(15):26"/>
			</v:userDefs>
			<v:textBlock v:margins="rect(4,4,4,4)" v:tabSpace="42.5197" v:verticalAlign="0"/>
			<v:textRect cx="82.9134" cy="445.226" width="165.83" height="300.099"/>
			<rect x="0" y="295.177" width="165.827" height="300.099" class="st1"/>
			<text x="42.5" y="313.15" class="st4" v:langID="2052"><v:paragraph v:horizAlign="1"/><v:tabList/>DDR<tspan class="st3">存储模块</tspan></text>		</g>
		<g id="shape1-17" v:mID="1" v:groupContext="shape" transform="translate(28.3465,-192.784)">
			<title>框</title>
			<desc>摄像头OV5640</desc>
			<v:userDefs>
				<v:ud v:nameU="visVersion" v:val="VT0(15):26"/>
			</v:userDefs>
			<v:textBlock v:margins="rect(4,4,4,4)" v:tabSpace="42.5197"/>
			<v:textRect cx="76.8007" cy="537.675" width="153.61" height="115.201"/>
			<rect x="0" y="480.074" width="153.601" height="115.201" class="st1"/>
			<text x="33" y="542.33" class="st5" v:langID="2052"><v:paragraph v:horizAlign="1"/><v:tabList/>摄像头<tspan class="st6">OV5640</tspan></text>		</g>
		<g id="shape3-21" v:mID="3" v:groupContext="shape" transform="translate(251.069,-261.905)">
			<title>框.3</title>
			<desc>I2C配置模块</desc>
			<v:userDefs>
				<v:ud v:nameU="visVersion" v:val="VT0(15):26"/>
			</v:userDefs>
			<v:textBlock v:margins="rect(4,4,4,4)" v:tabSpace="42.5197"/>
			<v:textRect cx="76.8007" cy="572.235" width="153.61" height="46.0804"/>
			<rect x="0" y="549.195" width="153.601" height="46.0804" class="st1"/>
			<text x="50.34" y="575.56" class="st7" v:langID="2052"><v:paragraph v:horizAlign="1"/><v:tabList/>I2C<tspan class="st3">配置模块</tspan></text>		</g>
		<g id="shape5-25" v:mID="5" v:groupContext="shape" transform="translate(181.948,-281.105)">
			<title>单箭头</title>
			<v:userDefs>
				<v:ud v:nameU="ControlX" v:val="VT0(0.059055118110236):24"/>
				<v:ud v:nameU="Scale" v:val="VT0(1):26"/>
				<v:ud v:nameU="AntiScale" v:val="VT0(1):26"/>
				<v:ud v:nameU="visVersion" v:val="VT0(15):26"/>
			</v:userDefs>
			<path d="M4.25 593.15 L4.25 597.4 L0 595.28 L4.25 593.15 Z" class="st8"/>
			<path d="M4.25 593.15 L4.25 597.4 L0 595.28 L4.25 593.15" class="st9"/>
			<path d="M4.25 595.28 L69.12 595.28" class="st9"/>
		</g>
		<g id="shape9-29" v:mID="9" v:groupContext="shape" transform="translate(181.948,-292.625)">
			<title>单箭头.9</title>
			<v:userDefs>
				<v:ud v:nameU="ControlX" v:val="VT0(0.059055118110236):24"/>
				<v:ud v:nameU="Scale" v:val="VT0(1):26"/>
				<v:ud v:nameU="AntiScale" v:val="VT0(1):26"/>
				<v:ud v:nameU="visVersion" v:val="VT0(15):26"/>
			</v:userDefs>
			<path d="M64.87 593.15 L64.87 597.4 L69.12 595.28 L64.87 593.15 Z" class="st8"/>
			<path d="M64.87 593.15 L64.87 597.4 L69.12 595.28 L64.87 593.15" class="st9"/>
			<path d="M0 595.28 L64.87 595.28" class="st9"/>
		</g>
		<g id="shape10-33" v:mID="10" v:groupContext="shape" transform="translate(251.069,-334.865)">
			<title>框.10</title>
			<desc>OV5640配置LUT查找表</desc>
			<v:userDefs>
				<v:ud v:nameU="visVersion" v:val="VT0(15):26"/>
			</v:userDefs>
			<v:textBlock v:margins="rect(4,4,4,4)" v:tabSpace="42.5197"/>
			<v:textRect cx="76.8007" cy="572.235" width="153.61" height="46.0804"/>
			<rect x="0" y="549.195" width="153.601" height="46.0804" class="st1"/>
			<text x="27.77" y="575.56" class="st7" v:langID="2052"><v:paragraph v:horizAlign="1"/><v:tabList/>OV5640<tspan
						class="st3">配置</tspan>LUT<tspan class="st3">查找表</tspan></text>		</g>
		<g id="shape12-38" v:mID="12" v:groupContext="shape" transform="translate(-267.406,287.291) rotate(-90)">
			<title>单箭头.12</title>
			<v:userDefs>
				<v:ud v:nameU="ControlX" v:val="VT0(0.059055118110236):24"/>
				<v:ud v:nameU="Scale" v:val="VT0(1):26"/>
				<v:ud v:nameU="AntiScale" v:val="VT0(1):26"/>
				<v:ud v:nameU="visVersion" v:val="VT0(15):26"/>
			</v:userDefs>
			<path d="M4.25 593.15 L4.25 597.4 L0 595.28 L4.25 593.15 Z" class="st8"/>
			<path d="M4.25 593.15 L4.25 597.4 L0 595.28 L4.25 593.15" class="st9"/>
			<path d="M4.25 595.28 L26.88 595.28" class="st9"/>
		</g>
		<g id="shape13-42" v:mID="13" v:groupContext="shape" transform="translate(-259.726,287.291) rotate(-90)">
			<title>单箭头.13</title>
			<v:userDefs>
				<v:ud v:nameU="ControlX" v:val="VT0(0.059055118110236):24"/>
				<v:ud v:nameU="Scale" v:val="VT0(1):26"/>
				<v:ud v:nameU="AntiScale" v:val="VT0(1):26"/>
				<v:ud v:nameU="visVersion" v:val="VT0(15):26"/>
			</v:userDefs>
			<path d="M22.63 593.15 L22.63 597.4 L26.88 595.28 L22.63 593.15 Z" class="st8"/>
			<path d="M22.63 593.15 L22.63 597.4 L26.88 595.28 L22.63 593.15" class="st9"/>
			<path d="M0 595.28 L22.63 595.28" class="st9"/>
		</g>
		<g id="shape16-46" v:mID="16" v:groupContext="shape" transform="translate(437.31,-503.827)">
			<title>框.16</title>
			<desc>DRAM芯片</desc>
			<v:userDefs>
				<v:ud v:nameU="visVersion" v:val="VT0(15):26"/>
			</v:userDefs>
			<v:textBlock v:margins="rect(4,4,4,4)" v:tabSpace="42.5197"/>
			<v:textRect cx="76.8007" cy="572.235" width="153.61" height="46.0804"/>
			<rect x="0" y="549.195" width="153.601" height="46.0804" class="st1"/>
			<text x="44.66" y="576.89" class="st4" v:langID="2052"><v:paragraph v:horizAlign="1"/><v:tabList/>DRAM<tspan
						class="st3">芯片</tspan></text>		</g>
		<g id="shape17-50" v:mID="17" v:groupContext="shape" transform="translate(433.47,-192.784)">
			<title>框.17</title>
			<desc>视频缓存模块</desc>
			<v:userDefs>
				<v:ud v:nameU="visVersion" v:val="VT0(15):26"/>
			</v:userDefs>
			<v:textBlock v:margins="rect(4,4,4,4)" v:tabSpace="42.5197"/>
			<v:textRect cx="76.8007" cy="572.235" width="153.61" height="46.0804"/>
			<rect x="0" y="549.195" width="153.601" height="46.0804" class="st1"/>
			<text x="46.8" y="575.56" class="st10" v:langID="2052"><v:paragraph v:horizAlign="1"/><v:tabList/>视频缓存模块</text>		</g>
		<g id="group23-53" transform="translate(105.147,-269.585)" v:mID="23" v:groupContext="group">
			<v:userDefs>
				<v:ud v:nameU="OpenEnd" v:val="VT0(3):26"/>
				<v:ud v:nameU="visVersion" v:val="VT0(15):26"/>
			</v:userDefs>
			<title>开放/闭合条</title>
			<desc>SCCB接口 寄存器配置</desc>
			<g id="shape24-54" v:mID="24" v:groupContext="shape">
				<title>工作表.24</title>
				<path d="M0 595.28 L76.8 595.28 L76.8 556.88 L0 556.88 L0 595.28 Z" class="st11"/>
				<path d="M0 595.28 L76.8 595.28 L76.8 556.88 L0 556.88" class="st12"/>
			</g>
			<g id="shape25-57" v:mID="25" v:groupContext="shape">
				<title>工作表.25</title>
				<path d="M0 595.28 L76.8 595.28 L0 595.28 ZM0 556.88 L76.8 556.88 L0 556.88 Z" class="st11"/>
				<path d="M0 595.28 L76.8 595.28" class="st13"/>
				<path d="" class="st13"/>
				<path d="M0 556.88 L76.8 556.88" class="st13"/>
				<path d="" class="st13"/>
				<path d="M0 595.28 L0 556.88" class="st13"/>
				<path d="M76.8 595.28 L76.8 556.88" class="st13"/>
			</g>
			<g id="shape26-65" v:mID="26" v:groupContext="shape" transform="translate(-1.125,-0.75)">
				<title>工作表.26</title>
				<rect x="0" y="558.375" width="1.5" height="36.9004" class="st14"/>
			</g>
			<g id="shape27-67" v:mID="27" v:groupContext="shape" transform="translate(76.8007,-0.75)">
				<title>工作表.27</title>
				<rect x="0" y="558.375" width="0.75" height="36.9004" class="st14"/>
			</g>
			<g id="shape23-69" v:mID="23" v:groupContext="groupContent">
				<v:textBlock v:margins="rect(4,4,4,4)" v:tabSpace="42.5197"/>
				<v:textRect cx="38.4004" cy="576.075" width="76.81" height="38.4004"/>
				<text x="18.05" y="572.75" class="st7" v:langID="2052"><v:paragraph v:horizAlign="1"/><v:tabList/>SCCB<tspan
							class="st3">接口<v:newlineChar/></tspan><tspan x="13.4" dy="1.331em" class="st3">寄存器配置</tspan></text>			</g>
		</g>
		<g id="group28-73" transform="translate(105.147,-192.784)" v:mID="28" v:groupContext="group">
			<v:userDefs>
				<v:ud v:nameU="OpenEnd" v:val="VT0(3):26"/>
				<v:ud v:nameU="visVersion" v:val="VT0(15):26"/>
			</v:userDefs>
			<title>开放/闭合条.28</title>
			<desc>DVP接口 视频图像接口</desc>
			<g id="shape29-74" v:mID="29" v:groupContext="shape">
				<title>工作表.29</title>
				<path d="M0 595.28 L76.8 595.28 L76.8 556.88 L0 556.88 L0 595.28 Z" class="st11"/>
				<path d="M0 595.28 L76.8 595.28 L76.8 556.88 L0 556.88" class="st12"/>
			</g>
			<g id="shape30-77" v:mID="30" v:groupContext="shape">
				<title>工作表.30</title>
				<path d="M0 595.28 L76.8 595.28 L0 595.28 ZM0 556.88 L76.8 556.88 L0 556.88 Z" class="st11"/>
				<path d="M0 595.28 L76.8 595.28" class="st13"/>
				<path d="" class="st13"/>
				<path d="M0 556.88 L76.8 556.88" class="st13"/>
				<path d="" class="st13"/>
				<path d="M0 595.28 L0 556.88" class="st13"/>
				<path d="M76.8 595.28 L76.8 556.88" class="st13"/>
			</g>
			<g id="shape31-85" v:mID="31" v:groupContext="shape" transform="translate(-1.125,-0.75)">
				<title>工作表.31</title>
				<rect x="0" y="558.375" width="1.5" height="36.9004" class="st14"/>
			</g>
			<g id="shape32-87" v:mID="32" v:groupContext="shape" transform="translate(76.8007,-0.75)">
				<title>工作表.32</title>
				<rect x="0" y="558.375" width="0.75" height="36.9004" class="st14"/>
			</g>
			<g id="shape28-89" v:mID="28" v:groupContext="groupContent">
				<v:textBlock v:margins="rect(4,4,4,4)" v:tabSpace="42.5197"/>
				<v:textRect cx="38.4004" cy="576.075" width="76.81" height="38.4004"/>
				<text x="19.9" y="572.75" class="st7" v:langID="2052"><v:paragraph v:horizAlign="1"/><v:tabList/>DVP<tspan
							class="st3">接口<v:newlineChar/></tspan><tspan x="8.4" dy="1.331em" class="st3">视频图像接口</tspan></text>			</g>
		</g>
		<g id="shape33-93" v:mID="33" v:groupContext="shape" transform="translate(251.069,-192.784)">
			<title>框.33</title>
			<desc>8位DVP接收转16位输出</desc>
			<v:userDefs>
				<v:ud v:nameU="visVersion" v:val="VT0(15):26"/>
			</v:userDefs>
			<v:textBlock v:margins="rect(4,4,4,4)" v:tabSpace="42.5197"/>
			<v:textRect cx="76.8007" cy="572.235" width="153.61" height="46.0804"/>
			<rect x="0" y="549.195" width="153.601" height="46.0804" class="st1"/>
			<text x="25.7" y="575.56" class="st7" v:langID="2052"><v:paragraph v:horizAlign="1"/><v:tabList/>8<tspan class="st3">位</tspan>DVP<tspan
						class="st3">接收转</tspan>16<tspan class="st3">位输出</tspan></text>		</g>
		<g id="shape34-99" v:mID="34" v:groupContext="shape" transform="translate(181.948,-210.064)">
			<title>单箭头.34</title>
			<v:userDefs>
				<v:ud v:nameU="ControlX" v:val="VT0(0.059055118110236):24"/>
				<v:ud v:nameU="Scale" v:val="VT0(1):26"/>
				<v:ud v:nameU="AntiScale" v:val="VT0(1):26"/>
				<v:ud v:nameU="visVersion" v:val="VT0(15):26"/>
			</v:userDefs>
			<path d="M4.25 593.15 L4.25 597.4 L0 595.28 L4.25 593.15 Z" class="st8"/>
			<path d="M4.25 593.15 L4.25 597.4 L0 595.28 L4.25 593.15" class="st9"/>
			<path d="M4.25 595.28 L69.12 595.28" class="st9"/>
		</g>
		<g id="shape35-103" v:mID="35" v:groupContext="shape" transform="translate(181.948,-221.584)">
			<title>单箭头.35</title>
			<v:userDefs>
				<v:ud v:nameU="ControlX" v:val="VT0(0.059055118110236):24"/>
				<v:ud v:nameU="Scale" v:val="VT0(1):26"/>
				<v:ud v:nameU="AntiScale" v:val="VT0(1):26"/>
				<v:ud v:nameU="visVersion" v:val="VT0(15):26"/>
			</v:userDefs>
			<path d="M64.87 593.15 L64.87 597.4 L69.12 595.28 L64.87 593.15 Z" class="st8"/>
			<path d="M64.87 593.15 L64.87 597.4 L69.12 595.28 L64.87 593.15" class="st9"/>
			<path d="M0 595.28 L64.87 595.28" class="st9"/>
		</g>
		<g id="shape37-107" v:mID="37" v:groupContext="shape" transform="translate(28.3465,-52.6225)">
			<title>框.37</title>
			<desc>外部按键输入</desc>
			<v:userDefs>
				<v:ud v:nameU="visVersion" v:val="VT0(15):26"/>
			</v:userDefs>
			<v:textBlock v:margins="rect(4,4,4,4)" v:tabSpace="42.5197"/>
			<v:textRect cx="76.8007" cy="572.235" width="153.61" height="46.0804"/>
			<rect x="0" y="549.195" width="153.601" height="46.0804" class="st1"/>
			<text x="46.8" y="575.56" class="st10" v:langID="2052"><v:paragraph v:horizAlign="1"/><v:tabList/>外部按键输入</text>		</g>
		<g id="shape38-110" v:mID="38" v:groupContext="shape" transform="translate(251.069,-52.6225)">
			<title>框.38</title>
			<desc>模式切换</desc>
			<v:userDefs>
				<v:ud v:nameU="visVersion" v:val="VT0(15):26"/>
			</v:userDefs>
			<v:textBlock v:margins="rect(4,4,4,4)" v:tabSpace="42.5197"/>
			<v:textRect cx="272.643" cy="572.235" width="545.29" height="46.0804"/>
			<rect x="0" y="549.195" width="545.285" height="46.0804" class="st1"/>
			<text x="244.64" y="576.89" class="st5" v:langID="2052"><v:paragraph v:horizAlign="1"/><v:tabList/>模式切换</text>		</g>
		<g id="shape39-113" v:mID="39" v:groupContext="shape" transform="translate(433.47,-267.665)">
			<title>框.39</title>
			<desc>DDR软核</desc>
			<v:userDefs>
				<v:ud v:nameU="visVersion" v:val="VT0(15):26"/>
			</v:userDefs>
			<v:textBlock v:margins="rect(4,4,4,4)" v:tabSpace="42.5197"/>
			<v:textRect cx="76.8007" cy="572.235" width="153.61" height="46.0804"/>
			<rect x="0" y="549.195" width="153.601" height="46.0804" class="st1"/>
			<text x="57.93" y="575.56" class="st7" v:langID="2052"><v:paragraph v:horizAlign="1"/><v:tabList/>DDR<tspan class="st3">软核</tspan></text>		</g>
		<g id="shape40-117" v:mID="40" v:groupContext="shape" v:layerMember="0" transform="translate(181.948,-68.5761)">
			<title>动态连接线.40</title>
			<path d="M0 588.19 L63.61 588.19" class="st15"/>
		</g>
		<g id="shape42-123" v:mID="42" v:groupContext="shape" v:layerMember="0" transform="translate(320.783,-394.752)">
			<title>动态连接线.42</title>
			<path d="M7.09 595.64 L7.09 603.57" class="st15"/>
		</g>
		<g id="shape46-128" v:mID="46" v:groupContext="shape" v:layerMember="0" transform="translate(503.185,-394.386)">
			<title>动态连接线.46</title>
			<path d="M7.09 595.28 L7.09 670.4" class="st15"/>
		</g>
		<g id="shape52-133" v:mID="52" v:groupContext="shape" v:layerMember="0" transform="translate(503.185,-267.665)">
			<title>动态连接线.52</title>
			<path d="M7.09 595.28 L7.09 618.56" class="st15"/>
		</g>
		<g id="shape55-138" v:mID="55" v:groupContext="shape" transform="translate(287.549,-129.423)">
			<title>框.55</title>
			<desc>视频处理模块 灰度+中值滤波+边缘检测+简单识别</desc>
			<v:userDefs>
				<v:ud v:nameU="visVersion" v:val="VT0(15):26"/>
			</v:userDefs>
			<v:textBlock v:margins="rect(4,4,4,4)" v:tabSpace="42.5197"/>
			<v:textRect cx="132.289" cy="572.235" width="264.58" height="46.0804"/>
			<rect x="0" y="549.195" width="264.579" height="46.0804" class="st1"/>
			<text x="90.29" y="570.24" class="st5" v:langID="2052"><v:paragraph v:horizAlign="1"/><v:tabList/>视频处理模块<v:newlineChar/><v:paragraph/><tspan
						x="4" dy="1.464em" class="st17">（</tspan><tspan class="st17">灰度</tspan><tspan class="st18">+</tspan><tspan
						class="st17">中值滤波</tspan><tspan class="st18">+</tspan><tspan class="st17">边缘检测</tspan><tspan class="st18">+</tspan><tspan
						class="st17">简单识别</tspan><tspan class="st17">）</tspan></text>		</g>
		<g id="shape71-150" v:mID="71" v:groupContext="shape" transform="translate(865.544,402.492) rotate(90)">
			<title>单箭头.71</title>
			<v:userDefs>
				<v:ud v:nameU="ControlX" v:val="VT0(0.059055118110236):24"/>
				<v:ud v:nameU="Scale" v:val="VT0(1):26"/>
				<v:ud v:nameU="AntiScale" v:val="VT0(1):26"/>
				<v:ud v:nameU="visVersion" v:val="VT0(15):26"/>
			</v:userDefs>
			<path d="M89.83 593.15 L89.83 597.4 L94.08 595.28 L89.83 593.15 Z" class="st8"/>
			<path d="M89.83 593.15 L89.83 597.4 L94.08 595.28 L89.83 593.15" class="st9"/>
			<path d="M0 595.28 L89.83 595.28" class="st9"/>
		</g>
		<g id="shape80-154" v:mID="80" v:groupContext="shape" transform="translate(951.945,466.812) rotate(90)">
			<title>单箭头.80</title>
			<v:userDefs>
				<v:ud v:nameU="ControlX" v:val="VT0(0.059055118110236):24"/>
				<v:ud v:nameU="Scale" v:val="VT0(1):26"/>
				<v:ud v:nameU="AntiScale" v:val="VT0(1):26"/>
				<v:ud v:nameU="visVersion" v:val="VT0(15):26"/>
			</v:userDefs>
			<path d="M25.51 593.15 L25.51 597.4 L29.76 595.28 L25.51 593.15 Z" class="st8"/>
			<path d="M25.51 593.15 L25.51 597.4 L29.76 595.28 L25.51 593.15" class="st9"/>
			<path d="M0 595.28 L25.51 595.28" class="st9"/>
		</g>
		<g id="shape82-158" v:mID="82" v:groupContext="shape" transform="translate(932.745,464.892) rotate(90)">
			<title>单箭头.82</title>
			<v:userDefs>
				<v:ud v:nameU="ControlX" v:val="VT0(0.059055118110236):24"/>
				<v:ud v:nameU="Scale" v:val="VT0(1):26"/>
				<v:ud v:nameU="AntiScale" v:val="VT0(1):26"/>
				<v:ud v:nameU="visVersion" v:val="VT0(15):26"/>
			</v:userDefs>
			<path d="M4.25 593.15 L4.25 597.4 L0 595.28 L4.25 593.15 Z" class="st8"/>
			<path d="M4.25 593.15 L4.25 597.4 L0 595.28 L4.25 593.15" class="st9"/>
			<path d="M4.25 595.28 L29.76 595.28" class="st9"/>
		</g>
		<g id="shape84-162" v:mID="84" v:groupContext="shape" transform="translate(1163.15,402.492) rotate(90)">
			<title>单箭头.84</title>
			<v:userDefs>
				<v:ud v:nameU="ControlX" v:val="VT0(0.059055118110236):24"/>
				<v:ud v:nameU="Scale" v:val="VT0(1):26"/>
				<v:ud v:nameU="AntiScale" v:val="VT0(1):26"/>
				<v:ud v:nameU="visVersion" v:val="VT0(15):26"/>
			</v:userDefs>
			<path d="M4.25 593.15 L4.25 597.4 L0 595.28 L4.25 593.15 Z" class="st8"/>
			<path d="M4.25 593.15 L4.25 597.4 L0 595.28 L4.25 593.15" class="st9"/>
			<path d="M4.25 595.28 L94.08 595.28" class="st9"/>
		</g>
		<g id="shape86-166" v:mID="86" v:groupContext="shape" transform="translate(650.432,-503.827)">
			<title>框.86</title>
			<desc>RTL8201F 百兆网芯片</desc>
			<v:userDefs>
				<v:ud v:nameU="visVersion" v:val="VT0(15):26"/>
			</v:userDefs>
			<v:textBlock v:margins="rect(4,4,4,4)" v:tabSpace="42.5197"/>
			<v:textRect cx="76.8007" cy="572.235" width="153.61" height="46.0804"/>
			<rect x="0" y="549.195" width="153.601" height="46.0804" class="st1"/>
			<text x="12.66" y="576.89" class="st4" v:langID="1033"><v:paragraph v:horizAlign="1"/><v:tabList/>RTL8201F<tspan
						class="st19" v:langID="2052"> </tspan><tspan class="st3" v:langID="2052">百兆网芯片</tspan></text>		</g>
		<g id="shape89-171" v:mID="89" v:groupContext="shape" transform="translate(637.795,-155.413)">
			<title>框.89</title>
			<desc>FIFO</desc>
			<v:userDefs>
				<v:ud v:nameU="visVersion" v:val="VT0(15):26"/>
			</v:userDefs>
			<v:textBlock v:margins="rect(4,4,4,4)" v:tabSpace="42.5197"/>
			<v:textRect cx="17.9615" cy="534.865" width="35.93" height="120.822"/>
			<rect x="0" y="474.454" width="35.9229" height="120.822" class="st1"/>
			<text x="8.8" y="537.86" class="st7" v:langID="2052"><v:paragraph v:horizAlign="1"/><v:tabList/>FIFO</text>		</g>
		<g id="shape90-174" v:mID="90" v:groupContext="shape" v:layerMember="0" transform="translate(587.072,-208.737)">
			<title>动态连接线.90</title>
			<path d="M0 588.19 L45.21 588.19" class="st15"/>
		</g>
		<g id="shape91-179" v:mID="91" v:groupContext="shape" transform="translate(681.153,-309.905)">
			<title>框.91</title>
			<desc>MDIO配置</desc>
			<v:userDefs>
				<v:ud v:nameU="visVersion" v:val="VT0(15):26"/>
			</v:userDefs>
			<v:textBlock v:margins="rect(4,4,4,4)" v:tabSpace="42.5197"/>
			<v:textRect cx="46.0804" cy="572.235" width="92.17" height="46.0804"/>
			<rect x="0" y="549.195" width="92.1609" height="46.0804" class="st1"/>
			<text x="24.16" y="575.56" class="st7" v:langID="2052"><v:paragraph v:horizAlign="1"/><v:tabList/>MDIO<tspan
						class="st3">配置</tspan></text>		</g>
		<g id="shape92-183" v:mID="92" v:groupContext="shape" transform="translate(681.153,-137.103)">
			<title>框.92</title>
			<desc>RMII配置</desc>
			<v:userDefs>
				<v:ud v:nameU="visVersion" v:val="VT0(15):26"/>
			</v:userDefs>
			<v:textBlock v:margins="rect(4,4,4,4)" v:tabSpace="42.5197" v:verticalAlign="0"/>
			<v:textRect cx="46.0804" cy="514.892" width="92.17" height="160.767"/>
			<rect x="0" y="434.509" width="92.1609" height="160.767" class="st1"/>
			<text x="26.57" y="448.49" class="st7" v:langID="2052"><v:paragraph v:horizAlign="1"/><v:tabList/>RMII<tspan
						class="st3">配置</tspan></text>		</g>
		<g id="shape94-187" v:mID="94" v:groupContext="shape" transform="translate(690.753,-250.96)">
			<title>框.94</title>
			<desc>RMII转GMII</desc>
			<v:userDefs>
				<v:ud v:nameU="visVersion" v:val="VT0(15):26"/>
			</v:userDefs>
			<v:textBlock v:margins="rect(4,4,4,4)" v:tabSpace="42.5197"/>
			<v:textRect cx="37.4404" cy="584.043" width="74.89" height="22.4642"/>
			<rect x="0" y="572.811" width="74.8807" height="22.4642" class="st1"/>
			<text x="12.98" y="587.37" class="st7" v:langID="2052"><v:paragraph v:horizAlign="1"/><v:tabList/>RMII<tspan
						class="st3">转</tspan>GMII</text>		</g>
		<g id="shape95-191" v:mID="95" v:groupContext="shape" transform="translate(689.793,-194.992)">
			<title>框.95</title>
			<desc>GMII_UDP发送</desc>
			<v:userDefs>
				<v:ud v:nameU="visVersion" v:val="VT0(15):26"/>
			</v:userDefs>
			<v:textBlock v:margins="rect(4,4,4,4)" v:tabSpace="42.5197"/>
			<v:textRect cx="37.4404" cy="574.443" width="74.89" height="41.6644"/>
			<rect x="0" y="553.611" width="74.8807" height="41.6644" class="st1"/>
			<text x="6.13" y="577.77" class="st7" v:langID="2052"><v:paragraph v:horizAlign="1"/><v:tabList/>GMII_UDP<tspan
						class="st3">发送</tspan></text>		</g>
		<g id="shape96-195" v:mID="96" v:groupContext="shape" transform="translate(689.793,-142.863)">
			<title>框.96</title>
			<desc>GMII_UDP接收</desc>
			<v:userDefs>
				<v:ud v:nameU="visVersion" v:val="VT0(15):26"/>
			</v:userDefs>
			<v:textBlock v:margins="rect(4,4,4,4)" v:tabSpace="42.5197"/>
			<v:textRect cx="37.4404" cy="572.235" width="74.89" height="46.0804"/>
			<rect x="0" y="549.195" width="74.8807" height="46.0804" class="st1"/>
			<text x="6.13" y="575.56" class="st7" v:langID="2052"><v:paragraph v:horizAlign="1"/><v:tabList/>GMII_UDP<tspan
						class="st3">接收</tspan></text>		</g>
		<g id="shape97-199" v:mID="97" v:groupContext="shape" v:layerMember="0" transform="translate(673.718,-222.911)">
			<title>动态连接线.97</title>
			<path d="M0 602.36 L10.56 602.36" class="st15"/>
		</g>
		<g id="shape101-204" v:mID="101" v:groupContext="shape" v:layerMember="0" transform="translate(720.147,-310.974)">
			<title>动态连接线.101</title>
			<path d="M7.09 596.34 L7.09 602.86" class="st15"/>
		</g>
		<g id="shape102-209" v:mID="102" v:groupContext="shape" transform="translate(1297.55,91.4488) rotate(90)">
			<title>单箭头.102</title>
			<v:userDefs>
				<v:ud v:nameU="ControlX" v:val="VT0(0.059055118110236):24"/>
				<v:ud v:nameU="Scale" v:val="VT0(1):26"/>
				<v:ud v:nameU="AntiScale" v:val="VT0(1):26"/>
				<v:ud v:nameU="visVersion" v:val="VT0(15):26"/>
			</v:userDefs>
			<path d="M18.55 593.15 L18.55 597.4 L22.8 595.28 L18.55 593.15 Z" class="st8"/>
			<path d="M18.55 593.15 L18.55 597.4 L22.8 595.28 L18.55 593.15" class="st9"/>
			<path d="M0 595.28 L18.55 595.28" class="st9"/>
		</g>
		<g id="shape103-213" v:mID="103" v:groupContext="shape" transform="translate(1316.75,91.4488) rotate(90)">
			<title>单箭头.103</title>
			<v:userDefs>
				<v:ud v:nameU="ControlX" v:val="VT0(0.059055118110236):24"/>
				<v:ud v:nameU="Scale" v:val="VT0(1):26"/>
				<v:ud v:nameU="AntiScale" v:val="VT0(1):26"/>
				<v:ud v:nameU="visVersion" v:val="VT0(15):26"/>
			</v:userDefs>
			<path d="M4.25 593.15 L4.25 597.4 L0 595.28 L4.25 593.15 Z" class="st8"/>
			<path d="M4.25 593.15 L4.25 597.4 L0 595.28 L4.25 593.15" class="st9"/>
			<path d="M4.25 595.28 L24 595.28" class="st9"/>
		</g>
		<g id="shape111-217" v:mID="111" v:groupContext="shape" v:layerMember="0" transform="translate(720.147,-394.386)">
			<title>动态连接线</title>
			<path d="M7.09 595.28 L7.09 628.16" class="st15"/>
		</g>
		<g id="shape87-222" v:mID="87" v:groupContext="shape" transform="translate(681.153,-394.386)">
			<title>框.87</title>
			<desc>MIO PLL时钟</desc>
			<v:userDefs>
				<v:ud v:nameU="visVersion" v:val="VT0(15):26"/>
			</v:userDefs>
			<v:textBlock v:margins="rect(4,4,4,4)" v:tabSpace="42.5197"/>
			<v:textRect cx="46.0804" cy="572.235" width="92.17" height="46.0804"/>
			<rect x="0" y="549.195" width="92.1609" height="46.0804" class="st1"/>
			<text x="19.32" y="575.56" class="st7" v:langID="2052"><v:paragraph v:horizAlign="1"/><v:tabList/>MIO PLL<tspan
						class="st3">时钟</tspan></text>		</g>
		<g id="shape45-226" v:mID="45" v:groupContext="shape" transform="translate(464.191,-394.386)">
			<title>框.45</title>
			<desc>DDR模块 PLL时钟</desc>
			<v:userDefs>
				<v:ud v:nameU="visVersion" v:val="VT0(15):26"/>
			</v:userDefs>
			<v:textBlock v:margins="rect(4,4,4,4)" v:tabSpace="42.5197"/>
			<v:textRect cx="46.0804" cy="572.235" width="92.17" height="46.0804"/>
			<rect x="0" y="549.195" width="92.1609" height="46.0804" class="st1"/>
			<text x="9.3" y="575.56" class="st7" v:langID="2052"><v:paragraph v:horizAlign="1"/><v:tabList/>DDR<tspan class="st3">模块</tspan> PLL<tspan
						class="st3">时钟</tspan></text>		</g>
		<g id="shape14-231" v:mID="14" v:groupContext="shape" transform="translate(272.957,-394.386)">
			<title>框.14</title>
			<desc>CMOS PLL时钟</desc>
			<v:userDefs>
				<v:ud v:nameU="visVersion" v:val="VT0(15):26"/>
			</v:userDefs>
			<v:textBlock v:margins="rect(4,4,4,4)" v:tabSpace="42.5197"/>
			<v:textRect cx="54.9125" cy="572.235" width="109.83" height="46.0804"/>
			<rect x="0" y="549.195" width="109.825" height="46.0804" class="st1"/>
			<text x="24.45" y="575.56" class="st7" v:langID="2052"><v:paragraph v:horizAlign="1"/><v:tabList/>CMOS PLL<tspan
						class="st3">时钟</tspan></text>		</g>
		<g id="shape114-235" v:mID="114" v:groupContext="shape" v:layerMember="0" transform="translate(520.323,-503.827)">
			<title>动态连接线.114</title>
			<path d="M-6.21 595.28 L-6.21 605.91 L-7.96 605.91 L-7.96 612.8" class="st15"/>
		</g>
	</g>
</svg>
