<?xml version="1.0" encoding="UTF-8" standalone="no"?>
<!DOCTYPE svg PUBLIC "-//W3C//DTD SVG 1.1//EN" "http://www.w3.org/Graphics/SVG/1.1/DTD/svg11.dtd">
<!-- 由 Microsoft Visio, SVG Export 生成 SystemDiagram_Pale.svg Page-1 -->
<svg xmlns="http://www.w3.org/2000/svg" xmlns:xlink="http://www.w3.org/1999/xlink" xmlns:ev="http://www.w3.org/2001/xml-events"
		xmlns:v="http://schemas.microsoft.com/visio/2003/SVGExtensions/" width="11.6929in" height="8.26772in"
		viewBox="0 0 841.89 595.276" xml:space="preserve" color-interpolation-filters="sRGB" class="st16">
	<v:documentProperties v:langID="2052" v:metric="true" v:viewMarkup="false">
		<v:userDefs>
			<v:ud v:nameU="msvNoAutoConnect" v:val="VT0(1):26"/>
		</v:userDefs>
	</v:documentProperties>

	<style type="text/css">
	<![CDATA[
		.st1 {fill:#ffffff;stroke:#000000;stroke-linecap:round;stroke-linejoin:round;stroke-width:0.75}
		.st2 {fill:#000000;font-family:Calibri;font-size:0.666664em}
		.st3 {font-family:黑体;font-size:1em}
		.st4 {fill:#000000;font-family:黑体;font-size:0.499992em}
		.st5 {fill:#000000;font-family:黑体;font-size:0.666664em}
		.st6 {font-family:Calibri;font-size:1em}
		.st7 {fill:#000000}
		.st8 {stroke:#000000;stroke-linecap:round;stroke-linejoin:round;stroke-width:0.2376}
		.st9 {fill:#ffffff}
		.st10 {stroke:none;stroke-linecap:round;stroke-linejoin:round;stroke-width:0.75}
		.st11 {stroke:#000000;stroke-linecap:round;stroke-linejoin:round;stroke-width:0.75}
		.st12 {fill:#ffffff;stroke:#ffffff;stroke-linecap:round;stroke-linejoin:round;stroke-width:0.75;visibility:hidden}
		.st13 {marker-end:url(#mrkr4-125);stroke:#000000;stroke-linecap:round;stroke-linejoin:round;stroke-width:0.2376}
		.st14 {fill:#000000;fill-opacity:1;stroke:#000000;stroke-opacity:1;stroke-width:0.086161879895561}
		.st15 {font-size:1em}
		.st16 {fill:none;fill-rule:evenodd;font-size:12px;overflow:visible;stroke-linecap:square;stroke-miterlimit:3}
	]]>
	</style>

	<defs id="Markers">
		<g id="lend4">
			<path d="M 2 1 L 0 0 L 2 -1 L 2 1 " style="stroke:none"/>
		</g>
		<marker id="mrkr4-125" class="st14" v:arrowType="4" v:arrowSize="2" v:setback="23.2121" refX="-23.212121212121"
				orient="auto" markerUnits="strokeWidth" overflow="visible">
			<use xlink:href="#lend4" transform="scale(-11.606060606061,-11.606060606061) "/>
		</marker>
	</defs>
	<g v:mID="0" v:index="1" v:groupContext="foregroundPage">
		<v:userDefs>
			<v:ud v:nameU="msvThemeOrder" v:val="VT0(0):26"/>
		</v:userDefs>
		<title>页-1</title>
		<v:pageProperties v:drawingScale="0.0393701" v:pageScale="0.0393701" v:drawingUnits="24" v:shadowOffsetX="8.50394"
				v:shadowOffsetY="-8.50394"/>
		<v:layer v:name="连接线" v:index="0"/>
		<g id="shape113-1" v:mID="113" v:groupContext="shape" transform="translate(187.087,-99.2126)">
			<title>框.113</title>
			<desc>FPGA板卡内部资源</desc>
			<v:userDefs>
				<v:ud v:nameU="visVersion" v:val="VT0(15):26"/>
			</v:userDefs>
			<v:textBlock v:margins="rect(4,4,4,4)" v:tabSpace="42.5197" v:verticalAlign="2"/>
			<v:textRect cx="225.354" cy="415.701" width="450.71" height="359.15"/>
			<rect x="0" y="236.126" width="450.709" height="359.15" class="st1"/>
			<text x="192.61" y="588.61" class="st2" v:langID="2052"><v:paragraph v:horizAlign="1"/><v:tabList/>FPGA<tspan
						class="st3">板卡内部资源</tspan></text>		</g>
		<g id="shape88-5" v:mID="88" v:groupContext="shape" transform="translate(527.244,-189.921)">
			<title>框.88</title>
			<desc>UDP顶层模块</desc>
			<v:userDefs>
				<v:ud v:nameU="visVersion" v:val="VT0(15):26"/>
			</v:userDefs>
			<v:textBlock v:margins="rect(4,4,4,4)" v:tabSpace="42.5197" v:verticalAlign="0"/>
			<v:textRect cx="51.0236" cy="464.882" width="102.05" height="260.787"/>
			<rect x="0" y="334.488" width="102.047" height="260.787" class="st1"/>
			<text x="27.93" y="346.48" class="st2" v:langID="2052"><v:paragraph v:horizAlign="1"/><v:tabList/>UDP<tspan class="st3">顶层模块</tspan></text>		</g>
		<g id="shape98-9" v:mID="98" v:groupContext="shape" transform="translate(198.425,-229.181)">
			<title>框.98</title>
			<desc>CMOS摄像头模块</desc>
			<v:userDefs>
				<v:ud v:nameU="visVersion" v:val="VT0(15):26"/>
			</v:userDefs>
			<v:textBlock v:margins="rect(4,4,4,4)" v:tabSpace="42.5197" v:verticalAlign="0"/>
			<v:textRect cx="76.5354" cy="484.512" width="153.08" height="221.528"/>
			<rect x="0" y="373.748" width="153.071" height="221.528" class="st1"/>
			<text x="46.5" y="385.74" class="st2" v:langID="2052"><v:paragraph v:horizAlign="1"/><v:tabList/>CMOS<tspan class="st3">摄像头模块</tspan></text>		</g>
		<g id="shape105-13" v:mID="105" v:groupContext="shape" transform="translate(354.331,-229.181)">
			<title>框.105</title>
			<desc>DDR存储模块</desc>
			<v:userDefs>
				<v:ud v:nameU="visVersion" v:val="VT0(15):26"/>
			</v:userDefs>
			<v:textBlock v:margins="rect(4,4,4,4)" v:tabSpace="42.5197" v:verticalAlign="0"/>
			<v:textRect cx="66.6142" cy="484.512" width="133.23" height="221.528"/>
			<rect x="0" y="373.748" width="133.228" height="221.528" class="st1"/>
			<text x="43.52" y="385.74" class="st2" v:langID="2052"><v:paragraph v:horizAlign="1"/><v:tabList/>DDR<tspan class="st3">存储模块</tspan></text>		</g>
		<g id="shape112-17" v:mID="112" v:groupContext="shape" transform="translate(223.937,-382.677)">
			<title>框.112</title>
			<desc>内部时钟生成</desc>
			<v:userDefs>
				<v:ud v:nameU="visVersion" v:val="VT0(15):26"/>
			</v:userDefs>
			<v:textBlock v:margins="rect(4,4,4,4)" v:tabSpace="42.5197" v:verticalAlign="2" v:verticalText="true"/>
			<v:textRect cx="197.858" cy="569.764" width="395.72" height="51.0236"/>
			<rect x="0" y="544.252" width="395.717" height="51.0236" class="st1"/>
			<text x="7.6" y="551.76" writing-mode="tb-rl" class="st4" v:langID="2052"><v:paragraph v:horizAlign="1"/><v:tabList/>内部时钟生成</text>		</g>
		<g id="shape1-20" v:mID="1" v:groupContext="shape" transform="translate(62.3622,-238.11)">
			<title>框</title>
			<desc>摄像头OV5640</desc>
			<v:userDefs>
				<v:ud v:nameU="visVersion" v:val="VT0(15):26"/>
			</v:userDefs>
			<v:textBlock v:margins="rect(4,4,4,4)" v:tabSpace="42.5197"/>
			<v:textRect cx="56.6929" cy="552.756" width="113.39" height="85.0394"/>
			<rect x="0" y="510.236" width="113.386" height="85.0394" class="st1"/>
			<text x="31.67" y="555.42" class="st5" v:langID="2052"><v:paragraph v:horizAlign="1"/><v:tabList/>摄像头<tspan class="st6">OV5640</tspan></text>		</g>
		<g id="shape3-24" v:mID="3" v:groupContext="shape" transform="translate(226.772,-289.134)">
			<title>框.3</title>
			<desc>I2C配置模块</desc>
			<v:userDefs>
				<v:ud v:nameU="visVersion" v:val="VT0(15):26"/>
			</v:userDefs>
			<v:textBlock v:margins="rect(4,4,4,4)" v:tabSpace="42.5197"/>
			<v:textRect cx="56.6929" cy="578.268" width="113.39" height="34.0157"/>
			<rect x="0" y="561.26" width="113.386" height="34.0157" class="st1"/>
			<text x="35.52" y="580.93" class="st2" v:langID="2052"><v:paragraph v:horizAlign="1"/><v:tabList/>I2C<tspan class="st3">配置模块</tspan></text>		</g>
		<g id="shape5-28" v:mID="5" v:groupContext="shape" transform="translate(175.748,-303.307)">
			<title>单箭头</title>
			<v:userDefs>
				<v:ud v:nameU="ControlX" v:val="VT0(0.059055118110236):24"/>
				<v:ud v:nameU="Scale" v:val="VT0(1):26"/>
				<v:ud v:nameU="AntiScale" v:val="VT0(1):26"/>
				<v:ud v:nameU="visVersion" v:val="VT0(15):26"/>
			</v:userDefs>
			<path d="M4.25 593.15 L4.25 597.4 L0 595.28 L4.25 593.15 Z" class="st7"/>
			<path d="M4.25 593.15 L4.25 597.4 L0 595.28 L4.25 593.15" class="st8"/>
			<path d="M4.25 595.28 L51.02 595.28" class="st8"/>
		</g>
		<g id="shape9-32" v:mID="9" v:groupContext="shape" transform="translate(175.748,-311.811)">
			<title>单箭头.9</title>
			<v:userDefs>
				<v:ud v:nameU="ControlX" v:val="VT0(0.059055118110236):24"/>
				<v:ud v:nameU="Scale" v:val="VT0(1):26"/>
				<v:ud v:nameU="AntiScale" v:val="VT0(1):26"/>
				<v:ud v:nameU="visVersion" v:val="VT0(15):26"/>
			</v:userDefs>
			<path d="M46.77 593.15 L46.77 597.4 L51.02 595.28 L46.77 593.15 Z" class="st7"/>
			<path d="M46.77 593.15 L46.77 597.4 L51.02 595.28 L46.77 593.15" class="st8"/>
			<path d="M0 595.28 L46.77 595.28" class="st8"/>
		</g>
		<g id="shape10-36" v:mID="10" v:groupContext="shape" transform="translate(226.772,-342.992)">
			<title>框.10</title>
			<desc>OV5640配置LUT查找表</desc>
			<v:userDefs>
				<v:ud v:nameU="visVersion" v:val="VT0(15):26"/>
			</v:userDefs>
			<v:textBlock v:margins="rect(4,4,4,4)" v:tabSpace="42.5197"/>
			<v:textRect cx="56.6929" cy="578.268" width="113.39" height="34.0157"/>
			<rect x="0" y="561.26" width="113.386" height="34.0157" class="st1"/>
			<text x="17.47" y="580.93" class="st2" v:langID="2052"><v:paragraph v:horizAlign="1"/><v:tabList/>OV5640<tspan
						class="st3">配置</tspan>LUT<tspan class="st3">查找表</tspan></text>		</g>
		<g id="shape12-41" v:mID="12" v:groupContext="shape" transform="translate(-311.811,272.126) rotate(-90)">
			<title>单箭头.12</title>
			<v:userDefs>
				<v:ud v:nameU="ControlX" v:val="VT0(0.059055118110236):24"/>
				<v:ud v:nameU="Scale" v:val="VT0(1):26"/>
				<v:ud v:nameU="AntiScale" v:val="VT0(1):26"/>
				<v:ud v:nameU="visVersion" v:val="VT0(15):26"/>
			</v:userDefs>
			<path d="M4.25 593.15 L4.25 597.4 L0 595.28 L4.25 593.15 Z" class="st7"/>
			<path d="M4.25 593.15 L4.25 597.4 L0 595.28 L4.25 593.15" class="st8"/>
			<path d="M4.25 595.28 L19.84 595.28" class="st8"/>
		</g>
		<g id="shape13-45" v:mID="13" v:groupContext="shape" transform="translate(-306.142,272.126) rotate(-90)">
			<title>单箭头.13</title>
			<v:userDefs>
				<v:ud v:nameU="ControlX" v:val="VT0(0.059055118110236):24"/>
				<v:ud v:nameU="Scale" v:val="VT0(1):26"/>
				<v:ud v:nameU="AntiScale" v:val="VT0(1):26"/>
				<v:ud v:nameU="visVersion" v:val="VT0(15):26"/>
			</v:userDefs>
			<path d="M15.59 593.15 L15.59 597.4 L19.84 595.28 L15.59 593.15 Z" class="st7"/>
			<path d="M15.59 593.15 L15.59 597.4 L19.84 595.28 L15.59 593.15" class="st8"/>
			<path d="M0 595.28 L15.59 595.28" class="st8"/>
		</g>
		<g id="shape16-49" v:mID="16" v:groupContext="shape" transform="translate(364.252,-467.717)">
			<title>框.16</title>
			<desc>DRAM芯片</desc>
			<v:userDefs>
				<v:ud v:nameU="visVersion" v:val="VT0(15):26"/>
			</v:userDefs>
			<v:textBlock v:margins="rect(4,4,4,4)" v:tabSpace="42.5197"/>
			<v:textRect cx="56.6929" cy="578.268" width="113.39" height="34.0157"/>
			<rect x="0" y="561.26" width="113.386" height="34.0157" class="st1"/>
			<text x="38.33" y="580.93" class="st2" v:langID="2052"><v:paragraph v:horizAlign="1"/><v:tabList/>DRAM<tspan
						class="st3">芯片</tspan></text>		</g>
		<g id="shape17-53" v:mID="17" v:groupContext="shape" transform="translate(361.417,-238.11)">
			<title>框.17</title>
			<desc>视频缓存模块</desc>
			<v:userDefs>
				<v:ud v:nameU="visVersion" v:val="VT0(15):26"/>
			</v:userDefs>
			<v:textBlock v:margins="rect(4,4,4,4)" v:tabSpace="42.5197"/>
			<v:textRect cx="56.6929" cy="578.268" width="113.39" height="34.0157"/>
			<rect x="0" y="561.26" width="113.386" height="34.0157" class="st1"/>
			<text x="32.69" y="580.93" class="st5" v:langID="2052"><v:paragraph v:horizAlign="1"/><v:tabList/>视频缓存模块</text>		</g>
		<g id="group23-56" transform="translate(119.055,-294.803)" v:mID="23" v:groupContext="group">
			<v:userDefs>
				<v:ud v:nameU="OpenEnd" v:val="VT0(3):26"/>
				<v:ud v:nameU="visVersion" v:val="VT0(15):26"/>
			</v:userDefs>
			<title>开放/闭合条</title>
			<desc>I2C接口 寄存器配置</desc>
			<g id="shape24-57" v:mID="24" v:groupContext="shape">
				<title>工作表.24</title>
				<path d="M0 595.28 L56.69 595.28 L56.69 566.93 L0 566.93 L0 595.28 Z" class="st9"/>
				<path d="M0 595.28 L56.69 595.28 L56.69 566.93 L0 566.93" class="st10"/>
			</g>
			<g id="shape25-60" v:mID="25" v:groupContext="shape">
				<title>工作表.25</title>
				<path d="M0 595.28 L56.69 595.28 L0 595.28 ZM0 566.93 L56.69 566.93 L0 566.93 Z" class="st9"/>
				<path d="M0 595.28 L56.69 595.28" class="st11"/>
				<path d="" class="st11"/>
				<path d="M0 566.93 L56.69 566.93" class="st11"/>
				<path d="" class="st11"/>
				<path d="M0 595.28 L0 566.93" class="st11"/>
				<path d="M56.69 595.28 L56.69 566.93" class="st11"/>
			</g>
			<g id="shape26-68" v:mID="26" v:groupContext="shape" transform="translate(-1.125,-0.75)">
				<title>工作表.26</title>
				<rect x="0" y="568.429" width="1.5" height="26.8465" class="st12"/>
			</g>
			<g id="shape27-70" v:mID="27" v:groupContext="shape" transform="translate(56.6929,-0.75)">
				<title>工作表.27</title>
				<rect x="0" y="568.429" width="0.75" height="26.8465" class="st12"/>
			</g>
			<g id="shape23-72" v:mID="23" v:groupContext="groupContent">
				<v:textBlock v:margins="rect(4,4,4,4)" v:tabSpace="42.5197"/>
				<v:textRect cx="28.3465" cy="581.102" width="56.7" height="28.3465"/>
				<text x="15.18" y="578.44" class="st2" v:langID="2052"><v:paragraph v:horizAlign="1"/><v:tabList/>I2C<tspan
							class="st3">接口<v:newlineChar/></tspan><tspan x="8.35" dy="1.331em" class="st3">寄存器配置</tspan></text>			</g>
		</g>
		<g id="group28-76" transform="translate(119.055,-238.11)" v:mID="28" v:groupContext="group">
			<v:userDefs>
				<v:ud v:nameU="OpenEnd" v:val="VT0(3):26"/>
				<v:ud v:nameU="visVersion" v:val="VT0(15):26"/>
			</v:userDefs>
			<title>开放/闭合条.28</title>
			<desc>DVP接口 视频图像接口</desc>
			<g id="shape29-77" v:mID="29" v:groupContext="shape">
				<title>工作表.29</title>
				<path d="M0 595.28 L56.69 595.28 L56.69 566.93 L0 566.93 L0 595.28 Z" class="st9"/>
				<path d="M0 595.28 L56.69 595.28 L56.69 566.93 L0 566.93" class="st10"/>
			</g>
			<g id="shape30-80" v:mID="30" v:groupContext="shape">
				<title>工作表.30</title>
				<path d="M0 595.28 L56.69 595.28 L0 595.28 ZM0 566.93 L56.69 566.93 L0 566.93 Z" class="st9"/>
				<path d="M0 595.28 L56.69 595.28" class="st11"/>
				<path d="" class="st11"/>
				<path d="M0 566.93 L56.69 566.93" class="st11"/>
				<path d="" class="st11"/>
				<path d="M0 595.28 L0 566.93" class="st11"/>
				<path d="M56.69 595.28 L56.69 566.93" class="st11"/>
			</g>
			<g id="shape31-88" v:mID="31" v:groupContext="shape" transform="translate(-1.125,-0.75)">
				<title>工作表.31</title>
				<rect x="0" y="568.429" width="1.5" height="26.8465" class="st12"/>
			</g>
			<g id="shape32-90" v:mID="32" v:groupContext="shape" transform="translate(56.6929,-0.75)">
				<title>工作表.32</title>
				<rect x="0" y="568.429" width="0.75" height="26.8465" class="st12"/>
			</g>
			<g id="shape28-92" v:mID="28" v:groupContext="groupContent">
				<v:textBlock v:margins="rect(4,4,4,4)" v:tabSpace="42.5197"/>
				<v:textRect cx="28.3465" cy="581.102" width="56.7" height="28.3465"/>
				<text x="13.55" y="578.44" class="st2" v:langID="2052"><v:paragraph v:horizAlign="1"/><v:tabList/>DVP<tspan
							class="st3">接口<v:newlineChar/></tspan><tspan x="4.35" dy="1.331em" class="st3">视频图像接口</tspan></text>			</g>
		</g>
		<g id="shape33-96" v:mID="33" v:groupContext="shape" transform="translate(226.772,-238.11)">
			<title>框.33</title>
			<desc>8位DVP接收转16位输出</desc>
			<v:userDefs>
				<v:ud v:nameU="visVersion" v:val="VT0(15):26"/>
			</v:userDefs>
			<v:textBlock v:margins="rect(4,4,4,4)" v:tabSpace="42.5197"/>
			<v:textRect cx="56.6929" cy="578.268" width="113.39" height="34.0157"/>
			<rect x="0" y="561.26" width="113.386" height="34.0157" class="st1"/>
			<text x="15.81" y="580.93" class="st2" v:langID="2052"><v:paragraph v:horizAlign="1"/><v:tabList/>8<tspan class="st3">位</tspan>DVP<tspan
						class="st3">接收转</tspan>16<tspan class="st3">位输出</tspan></text>		</g>
		<g id="shape34-102" v:mID="34" v:groupContext="shape" transform="translate(175.748,-250.866)">
			<title>单箭头.34</title>
			<v:userDefs>
				<v:ud v:nameU="ControlX" v:val="VT0(0.059055118110236):24"/>
				<v:ud v:nameU="Scale" v:val="VT0(1):26"/>
				<v:ud v:nameU="AntiScale" v:val="VT0(1):26"/>
				<v:ud v:nameU="visVersion" v:val="VT0(15):26"/>
			</v:userDefs>
			<path d="M4.25 593.15 L4.25 597.4 L0 595.28 L4.25 593.15 Z" class="st7"/>
			<path d="M4.25 593.15 L4.25 597.4 L0 595.28 L4.25 593.15" class="st8"/>
			<path d="M4.25 595.28 L51.02 595.28" class="st8"/>
		</g>
		<g id="shape35-106" v:mID="35" v:groupContext="shape" transform="translate(175.748,-259.37)">
			<title>单箭头.35</title>
			<v:userDefs>
				<v:ud v:nameU="ControlX" v:val="VT0(0.059055118110236):24"/>
				<v:ud v:nameU="Scale" v:val="VT0(1):26"/>
				<v:ud v:nameU="AntiScale" v:val="VT0(1):26"/>
				<v:ud v:nameU="visVersion" v:val="VT0(15):26"/>
			</v:userDefs>
			<path d="M46.77 593.15 L46.77 597.4 L51.02 595.28 L46.77 593.15 Z" class="st7"/>
			<path d="M46.77 593.15 L46.77 597.4 L51.02 595.28 L46.77 593.15" class="st8"/>
			<path d="M0 595.28 L46.77 595.28" class="st8"/>
		</g>
		<g id="shape37-110" v:mID="37" v:groupContext="shape" transform="translate(62.3622,-134.646)">
			<title>框.37</title>
			<desc>外部按键输入</desc>
			<v:userDefs>
				<v:ud v:nameU="visVersion" v:val="VT0(15):26"/>
			</v:userDefs>
			<v:textBlock v:margins="rect(4,4,4,4)" v:tabSpace="42.5197"/>
			<v:textRect cx="56.6929" cy="578.268" width="113.39" height="34.0157"/>
			<rect x="0" y="561.26" width="113.386" height="34.0157" class="st1"/>
			<text x="32.69" y="580.93" class="st5" v:langID="2052"><v:paragraph v:horizAlign="1"/><v:tabList/>外部按键输入</text>		</g>
		<g id="shape38-113" v:mID="38" v:groupContext="shape" transform="translate(226.772,-134.646)">
			<title>框.38</title>
			<desc>模式切换</desc>
			<v:userDefs>
				<v:ud v:nameU="visVersion" v:val="VT0(15):26"/>
			</v:userDefs>
			<v:textBlock v:margins="rect(4,4,4,4)" v:tabSpace="42.5197"/>
			<v:textRect cx="201.26" cy="578.268" width="402.52" height="34.0157"/>
			<rect x="0" y="561.26" width="402.52" height="34.0157" class="st1"/>
			<text x="185.26" y="580.93" class="st5" v:langID="2052"><v:paragraph v:horizAlign="1"/><v:tabList/>模式切换</text>		</g>
		<g id="shape39-116" v:mID="39" v:groupContext="shape" transform="translate(361.417,-293.386)">
			<title>框.39</title>
			<desc>DDR软核</desc>
			<v:userDefs>
				<v:ud v:nameU="visVersion" v:val="VT0(15):26"/>
			</v:userDefs>
			<v:textBlock v:margins="rect(4,4,4,4)" v:tabSpace="42.5197"/>
			<v:textRect cx="56.6929" cy="578.268" width="113.39" height="34.0157"/>
			<rect x="0" y="561.26" width="113.386" height="34.0157" class="st1"/>
			<text x="41.6" y="580.93" class="st2" v:langID="2052"><v:paragraph v:horizAlign="1"/><v:tabList/>DDR<tspan class="st3">软核</tspan></text>		</g>
		<g id="shape40-120" v:mID="40" v:groupContext="shape" v:layerMember="0" transform="translate(175.748,-144.567)">
			<title>动态连接线.40</title>
			<path d="M0 588.19 L45.51 588.19" class="st13"/>
		</g>
		<g id="shape42-126" v:mID="42" v:groupContext="shape" v:layerMember="0" transform="translate(276.378,-389.055)">
			<title>动态连接线.42</title>
			<path d="M7.09 597.4 L7.09 601.81" class="st13"/>
		</g>
		<g id="shape46-131" v:mID="46" v:groupContext="shape" v:layerMember="0" transform="translate(411.024,-386.929)">
			<title>动态连接线.46</title>
			<path d="M7.09 595.28 L7.09 649.29" class="st13"/>
		</g>
		<g id="shape52-136" v:mID="52" v:groupContext="shape" v:layerMember="0" transform="translate(411.024,-293.386)">
			<title>动态连接线.52</title>
			<path d="M7.09 595.28 L7.09 611.02" class="st13"/>
		</g>
		<g id="shape55-141" v:mID="55" v:groupContext="shape" transform="translate(253.701,-191.339)">
			<title>框.55</title>
			<desc>视频处理模块 灰度+中值滤波+边缘检测+简单识别</desc>
			<v:userDefs>
				<v:ud v:nameU="visVersion" v:val="VT0(15):26"/>
			</v:userDefs>
			<v:textBlock v:margins="rect(4,4,4,4)" v:tabSpace="42.5197"/>
			<v:textRect cx="97.6535" cy="578.268" width="195.31" height="34.0157"/>
			<rect x="0" y="561.26" width="195.307" height="34.0157" class="st1"/>
			<text x="73.65" y="575.61" class="st5" v:langID="2052"><v:paragraph v:horizAlign="1"/><v:tabList/>视频处理模块<v:newlineChar/><v:paragraph/><tspan
						x="4" dy="1.331em" class="st15">（</tspan>灰度<tspan class="st6">+</tspan>中值滤波<tspan class="st6">+</tspan>边缘检测<tspan
						class="st6">+</tspan>简单识别）</text>		</g>
		<g id="shape71-148" v:mID="71" v:groupContext="shape" transform="translate(836.22,357.165) rotate(90)">
			<title>单箭头.71</title>
			<v:userDefs>
				<v:ud v:nameU="ControlX" v:val="VT0(0.059055118110236):24"/>
				<v:ud v:nameU="Scale" v:val="VT0(1):26"/>
				<v:ud v:nameU="AntiScale" v:val="VT0(1):26"/>
				<v:ud v:nameU="visVersion" v:val="VT0(15):26"/>
			</v:userDefs>
			<path d="M65.2 593.15 L65.2 597.4 L69.45 595.28 L65.2 593.15 Z" class="st7"/>
			<path d="M65.2 593.15 L65.2 597.4 L69.45 595.28 L65.2 593.15" class="st8"/>
			<path d="M0 595.28 L65.2 595.28" class="st8"/>
		</g>
		<g id="shape80-152" v:mID="80" v:groupContext="shape" transform="translate(900,404.646) rotate(90)">
			<title>单箭头.80</title>
			<v:userDefs>
				<v:ud v:nameU="ControlX" v:val="VT0(0.059055118110236):24"/>
				<v:ud v:nameU="Scale" v:val="VT0(1):26"/>
				<v:ud v:nameU="AntiScale" v:val="VT0(1):26"/>
				<v:ud v:nameU="visVersion" v:val="VT0(15):26"/>
			</v:userDefs>
			<path d="M17.72 593.15 L17.72 597.4 L21.97 595.28 L17.72 593.15 Z" class="st7"/>
			<path d="M17.72 593.15 L17.72 597.4 L21.97 595.28 L17.72 593.15" class="st8"/>
			<path d="M0 595.28 L17.72 595.28" class="st8"/>
		</g>
		<g id="shape82-156" v:mID="82" v:groupContext="shape" transform="translate(885.827,403.228) rotate(90)">
			<title>单箭头.82</title>
			<v:userDefs>
				<v:ud v:nameU="ControlX" v:val="VT0(0.059055118110236):24"/>
				<v:ud v:nameU="Scale" v:val="VT0(1):26"/>
				<v:ud v:nameU="AntiScale" v:val="VT0(1):26"/>
				<v:ud v:nameU="visVersion" v:val="VT0(15):26"/>
			</v:userDefs>
			<path d="M4.25 593.15 L4.25 597.4 L0 595.28 L4.25 593.15 Z" class="st7"/>
			<path d="M4.25 593.15 L4.25 597.4 L0 595.28 L4.25 593.15" class="st8"/>
			<path d="M4.25 595.28 L21.97 595.28" class="st8"/>
		</g>
		<g id="shape84-160" v:mID="84" v:groupContext="shape" transform="translate(1055.91,357.165) rotate(90)">
			<title>单箭头.84</title>
			<v:userDefs>
				<v:ud v:nameU="ControlX" v:val="VT0(0.059055118110236):24"/>
				<v:ud v:nameU="Scale" v:val="VT0(1):26"/>
				<v:ud v:nameU="AntiScale" v:val="VT0(1):26"/>
				<v:ud v:nameU="visVersion" v:val="VT0(15):26"/>
			</v:userDefs>
			<path d="M4.25 593.15 L4.25 597.4 L0 595.28 L4.25 593.15 Z" class="st7"/>
			<path d="M4.25 593.15 L4.25 597.4 L0 595.28 L4.25 593.15" class="st8"/>
			<path d="M4.25 595.28 L69.45 595.28" class="st8"/>
		</g>
		<g id="shape86-164" v:mID="86" v:groupContext="shape" transform="translate(521.575,-467.717)">
			<title>框.86</title>
			<desc>RTL8201F 百兆网芯片</desc>
			<v:userDefs>
				<v:ud v:nameU="visVersion" v:val="VT0(15):26"/>
			</v:userDefs>
			<v:textBlock v:margins="rect(4,4,4,4)" v:tabSpace="42.5197"/>
			<v:textRect cx="56.6929" cy="578.268" width="113.39" height="34.0157"/>
			<rect x="0" y="561.26" width="113.386" height="34.0157" class="st1"/>
			<text x="20.04" y="580.93" class="st2" v:langID="1033"><v:paragraph v:horizAlign="1"/><v:tabList/>RTL8201F<tspan
						class="st15" v:langID="2052"> </tspan><tspan class="st3" v:langID="2052">百兆网芯片</tspan></text>		</g>
		<g id="shape89-169" v:mID="89" v:groupContext="shape" transform="translate(496.977,-210.524)">
			<title>框.89</title>
			<desc>FIFO</desc>
			<v:userDefs>
				<v:ud v:nameU="visVersion" v:val="VT0(15):26"/>
			</v:userDefs>
			<v:textBlock v:margins="rect(4,4,4,4)" v:tabSpace="42.5197"/>
			<v:textRect cx="13.2588" cy="550.681" width="26.52" height="89.1885"/>
			<rect x="0" y="506.087" width="26.5177" height="89.1885" class="st1"/>
			<text x="5.93" y="553.08" class="st2" v:langID="2052"><v:paragraph v:horizAlign="1"/><v:tabList/>FIFO</text>		</g>
		<g id="shape90-172" v:mID="90" v:groupContext="shape" v:layerMember="0" transform="translate(474.803,-248.031)">
			<title>动态连接线.90</title>
			<path d="M0 588.19 L16.66 588.19" class="st13"/>
		</g>
		<g id="shape91-177" v:mID="91" v:groupContext="shape" transform="translate(544.252,-324.567)">
			<title>框.91</title>
			<desc>MDIO配置</desc>
			<v:userDefs>
				<v:ud v:nameU="visVersion" v:val="VT0(15):26"/>
			</v:userDefs>
			<v:textBlock v:margins="rect(4,4,4,4)" v:tabSpace="42.5197"/>
			<v:textRect cx="34.0157" cy="578.268" width="68.04" height="34.0157"/>
			<rect x="0" y="561.26" width="68.0315" height="34.0157" class="st1"/>
			<text x="16.48" y="580.93" class="st2" v:langID="2052"><v:paragraph v:horizAlign="1"/><v:tabList/>MDIO<tspan
						class="st3">配置</tspan></text>		</g>
		<g id="shape92-181" v:mID="92" v:groupContext="shape" transform="translate(544.252,-197.008)">
			<title>框.92</title>
			<desc>RMII配置</desc>
			<v:userDefs>
				<v:ud v:nameU="visVersion" v:val="VT0(15):26"/>
			</v:userDefs>
			<v:textBlock v:margins="rect(4,4,4,4)" v:tabSpace="42.5197" v:verticalAlign="0"/>
			<v:textRect cx="34.0157" cy="535.938" width="68.04" height="118.675"/>
			<rect x="0" y="476.601" width="68.0315" height="118.675" class="st1"/>
			<text x="18.41" y="488.59" class="st2" v:langID="2052"><v:paragraph v:horizAlign="1"/><v:tabList/>RMII<tspan
						class="st3">配置</tspan></text>		</g>
		<g id="shape94-185" v:mID="94" v:groupContext="shape" transform="translate(551.339,-281.055)">
			<title>框.94</title>
			<desc>RMII转GMII</desc>
			<v:userDefs>
				<v:ud v:nameU="visVersion" v:val="VT0(15):26"/>
			</v:userDefs>
			<v:textBlock v:margins="rect(4,4,4,4)" v:tabSpace="42.5197"/>
			<v:textRect cx="27.6378" cy="586.984" width="55.28" height="16.5827"/>
			<rect x="0" y="578.693" width="55.2756" height="16.5827" class="st1"/>
			<text x="8.07" y="589.65" class="st2" v:langID="2052"><v:paragraph v:horizAlign="1"/><v:tabList/>RMII<tspan class="st3">转</tspan>GMII</text>		</g>
		<g id="shape95-189" v:mID="95" v:groupContext="shape" transform="translate(550.63,-239.74)">
			<title>框.95</title>
			<desc>GMII_UDP发送</desc>
			<v:userDefs>
				<v:ud v:nameU="visVersion" v:val="VT0(15):26"/>
			</v:userDefs>
			<v:textBlock v:margins="rect(4,4,4,4)" v:tabSpace="42.5197"/>
			<v:textRect cx="27.6378" cy="579.898" width="55.28" height="30.7559"/>
			<rect x="0" y="564.52" width="55.2756" height="30.7559" class="st1"/>
			<text x="6.59" y="577.24" class="st2" v:langID="2052"><v:paragraph v:horizAlign="1"/><v:tabList/>GMII_UDP<tspan
						class="st3">发</tspan><tspan x="23.64" dy="1.331em" class="st3">送</tspan></text>		</g>
		<g id="shape96-194" v:mID="96" v:groupContext="shape" transform="translate(550.63,-201.26)">
			<title>框.96</title>
			<desc>GMII_UDP接收</desc>
			<v:userDefs>
				<v:ud v:nameU="visVersion" v:val="VT0(15):26"/>
			</v:userDefs>
			<v:textBlock v:margins="rect(4,4,4,4)" v:tabSpace="42.5197"/>
			<v:textRect cx="27.6378" cy="578.268" width="55.28" height="34.0157"/>
			<rect x="0" y="561.26" width="55.2756" height="34.0157" class="st1"/>
			<text x="6.59" y="575.61" class="st2" v:langID="2052"><v:paragraph v:horizAlign="1"/><v:tabList/>GMII_UDP<tspan
						class="st3">接</tspan><tspan x="23.64" dy="1.331em" class="st3">收</tspan></text>		</g>
		<g id="shape97-199" v:mID="97" v:groupContext="shape" v:layerMember="0" transform="translate(523.495,-262.205)">
			<title>动态连接线.97</title>
			<path d="M0 602.36 L21.62 602.36" class="st13"/>
		</g>
		<g id="shape101-204" v:mID="101" v:groupContext="shape" v:layerMember="0" transform="translate(571.181,-327.212)">
			<title>动态连接线.101</title>
			<path d="M7.09 597.92 L7.09 601.29" class="st13"/>
		</g>
		<g id="shape102-209" v:mID="102" v:groupContext="shape" transform="translate(1155.12,127.559) rotate(90)">
			<title>单箭头.102</title>
			<v:userDefs>
				<v:ud v:nameU="ControlX" v:val="VT0(0.059055118110236):24"/>
				<v:ud v:nameU="Scale" v:val="VT0(1):26"/>
				<v:ud v:nameU="AntiScale" v:val="VT0(1):26"/>
				<v:ud v:nameU="visVersion" v:val="VT0(15):26"/>
			</v:userDefs>
			<path d="M12.58 593.15 L12.58 597.4 L16.83 595.28 L12.58 593.15 Z" class="st7"/>
			<path d="M12.58 593.15 L12.58 597.4 L16.83 595.28 L12.58 593.15" class="st8"/>
			<path d="M0 595.28 L12.58 595.28" class="st8"/>
		</g>
		<g id="shape103-213" v:mID="103" v:groupContext="shape" transform="translate(1169.29,127.559) rotate(90)">
			<title>单箭头.103</title>
			<v:userDefs>
				<v:ud v:nameU="ControlX" v:val="VT0(0.059055118110236):24"/>
				<v:ud v:nameU="Scale" v:val="VT0(1):26"/>
				<v:ud v:nameU="AntiScale" v:val="VT0(1):26"/>
				<v:ud v:nameU="visVersion" v:val="VT0(15):26"/>
			</v:userDefs>
			<path d="M4.25 593.15 L4.25 597.4 L0 595.28 L4.25 593.15 Z" class="st7"/>
			<path d="M4.25 593.15 L4.25 597.4 L0 595.28 L4.25 593.15" class="st8"/>
			<path d="M4.25 595.28 L17.72 595.28" class="st8"/>
		</g>
		<g id="shape111-217" v:mID="111" v:groupContext="shape" v:layerMember="0" transform="translate(571.181,-386.929)">
			<title>动态连接线</title>
			<path d="M7.09 595.28 L7.09 618.11" class="st13"/>
		</g>
		<g id="shape87-222" v:mID="87" v:groupContext="shape" transform="translate(544.252,-386.929)">
			<title>框.87</title>
			<desc>MIO PLL时钟</desc>
			<v:userDefs>
				<v:ud v:nameU="visVersion" v:val="VT0(15):26"/>
			</v:userDefs>
			<v:textBlock v:margins="rect(4,4,4,4)" v:tabSpace="42.5197"/>
			<v:textRect cx="34.0157" cy="578.268" width="68.04" height="34.0157"/>
			<rect x="0" y="561.26" width="68.0315" height="34.0157" class="st1"/>
			<text x="12.61" y="580.93" class="st2" v:langID="2052"><v:paragraph v:horizAlign="1"/><v:tabList/>MIO PLL<tspan
						class="st3">时钟</tspan></text>		</g>
		<g id="shape45-226" v:mID="45" v:groupContext="shape" transform="translate(384.094,-386.929)">
			<title>框.45</title>
			<desc>DDR模块 PLL时钟</desc>
			<v:userDefs>
				<v:ud v:nameU="visVersion" v:val="VT0(15):26"/>
			</v:userDefs>
			<v:textBlock v:margins="rect(4,4,4,4)" v:tabSpace="42.5197"/>
			<v:textRect cx="34.0157" cy="578.268" width="68.04" height="34.0157"/>
			<rect x="0" y="561.26" width="68.0315" height="34.0157" class="st1"/>
			<text x="4.59" y="580.93" class="st2" v:langID="2052"><v:paragraph v:horizAlign="1"/><v:tabList/>DDR<tspan class="st3">模块</tspan> PLL<tspan
						class="st3">时钟</tspan></text>		</g>
		<g id="shape14-231" v:mID="14" v:groupContext="shape" transform="translate(242.929,-386.929)">
			<title>框.14</title>
			<desc>CMOS PLL时钟</desc>
			<v:userDefs>
				<v:ud v:nameU="visVersion" v:val="VT0(15):26"/>
			</v:userDefs>
			<v:textBlock v:margins="rect(4,4,4,4)" v:tabSpace="42.5197"/>
			<v:textRect cx="40.5354" cy="578.268" width="81.08" height="34.0157"/>
			<rect x="0" y="561.26" width="81.0709" height="34.0157" class="st1"/>
			<text x="16.16" y="580.93" class="st2" v:langID="2052"><v:paragraph v:horizAlign="1"/><v:tabList/>CMOS PLL<tspan
						class="st3">时钟</tspan></text>		</g>
		<g id="shape114-235" v:mID="114" v:groupContext="shape" v:layerMember="0" transform="translate(428.031,-467.717)">
			<title>动态连接线.114</title>
			<path d="M-7.09 595.28 L-7.09 606.77" class="st13"/>
		</g>
	</g>
</svg>
